# xmcd
#
# Track frame offsets: 
#        150
#        34070
#        67335
#        92958
#        130585
#        155143
#        191103
#        220723
#
# Disc length: 3253 seconds
#
# Revision: 1
# Processed by: cddbd v1.5.2PL0 Copyright (c) Steve Scherf et al.
# Submitted via: ExactAudioCopyFreeDBPlugin 1.0
#
DISCID=770cb308
DTITLE=David Matthews Trio - With Gary Burton
DYEAR=1990
DGENRE=Jazz
TTITLE0=American Pie
TTITLE1=Mr. Tambourine Man
TTITLE2=My Back Pages
TTITLE3=Sound Of Silence
TTITLE4=Sunny
TTITLE5=COmo En Vietnam
TTITLE6=A Taste Of Honey
TTITLE7=MonnLight Melody
EXTD=YEAR: 1990
EXTT0=
EXTT1=
EXTT2=
EXTT3=
EXTT4=
EXTT5=
EXTT6=
EXTT7=
PLAYORDER=
